<svg width="57" height="27" viewBox="0 0 57 27" fill="none" xmlns="http://www.w3.org/2000/svg">
<path d="M21.1148 0H27.888V27H21.1148V0Z" fill="url(#paint0_linear_117_43)"/>
<path d="M27.888 0H36.8001V6.84H27.888V0Z" fill="url(#paint1_linear_117_43)"/>
<path d="M27.888 10.8H34.6612V17.64H27.888V10.8Z" fill="url(#paint2_linear_117_43)"/>
<path d="M11.1064 24.4051C10.6058 24.4058 10.11 24.3066 9.64755 24.113C9.18509 23.9195 8.7651 23.6355 8.41176 23.2773L0 14.7826L8.41176 6.28786C8.76335 5.92024 9.18392 5.62702 9.64893 5.42529C10.1139 5.22357 10.6141 5.11739 11.1201 5.11295C11.6262 5.10851 12.1281 5.20589 12.5965 5.39943C13.0649 5.59296 13.4905 5.87876 13.8483 6.24015C14.2062 6.60155 14.4892 7.03129 14.6808 7.50432C14.8725 7.97735 14.9689 8.48418 14.9645 8.99525C14.9601 9.50632 14.855 10.0114 14.6552 10.481C14.4555 10.9506 14.1651 11.3753 13.8011 11.7303L10.7806 14.7826L13.8011 17.8349C14.334 18.3732 14.6968 19.0589 14.8438 19.8054C14.9908 20.552 14.9153 21.3257 14.6269 22.0289C14.3385 22.7322 13.8501 23.3332 13.2235 23.7562C12.5969 24.1791 11.8601 24.4049 11.1064 24.4051ZM45.8935 24.3692C45.1398 24.3691 44.4031 24.1432 43.7764 23.7203C43.1498 23.2973 42.6614 22.6963 42.373 21.9931C42.0846 21.2898 42.0091 20.5161 42.1561 19.7695C42.3031 19.023 42.666 18.3373 43.1988 17.799L46.2194 14.7467L43.1988 11.6945C42.8348 11.3394 42.5445 10.9147 42.3447 10.4451C42.145 9.97549 42.0398 9.47043 42.0354 8.95936C42.031 8.44829 42.1274 7.94146 42.3191 7.46843C42.5107 6.9954 42.7938 6.56566 43.1516 6.20426C43.5095 5.84287 43.935 5.55708 44.4034 5.36354C44.8719 5.17001 45.3738 5.07263 45.8799 5.07707C46.3859 5.08151 46.886 5.18769 47.3511 5.38941C47.8161 5.59113 48.2366 5.88435 48.5882 6.25197L57 14.7467L48.5882 23.2415C48.235 23.5998 47.815 23.8839 47.3525 24.0774C46.89 24.271 46.3942 24.3702 45.8935 24.3692Z" fill="url(#paint3_linear_117_43)"/>
<defs>
<linearGradient id="paint0_linear_117_43" x1="0" y1="0" x2="57.5165" y2="26.9785" gradientUnits="userSpaceOnUse">
<stop stop-color="#2193B0"/>
<stop offset="1" stop-color="#6DD5ED"/>
</linearGradient>
<linearGradient id="paint1_linear_117_43" x1="0" y1="0" x2="57.5165" y2="26.9785" gradientUnits="userSpaceOnUse">
<stop stop-color="#2193B0"/>
<stop offset="1" stop-color="#6DD5ED"/>
</linearGradient>
<linearGradient id="paint2_linear_117_43" x1="0" y1="0" x2="57.5165" y2="26.9785" gradientUnits="userSpaceOnUse">
<stop stop-color="#2193B0"/>
<stop offset="1" stop-color="#6DD5ED"/>
</linearGradient>
<linearGradient id="paint3_linear_117_43" x1="0" y1="0" x2="57.5165" y2="26.9785" gradientUnits="userSpaceOnUse">
<stop stop-color="#2193B0"/>
<stop offset="1" stop-color="#6DD5ED"/>
</linearGradient>
</defs>
</svg>
